HIERARCHY
ROOT Hips
{
	OFFSET 0.000000 88.474243 0.000000
	CHANNELS 6 Xposition Yposition Zposition Zrotation Yrotation Xrotation 
	JOINT Hips_Spine
	{
		OFFSET 0.000000 0.000000 0.000000
		CHANNELS 3 Zrotation Yrotation Xrotation
		JOINT Spine
		{
			OFFSET 0.005100 8.711998 -0.691000
			CHANNELS 3 Zrotation Yrotation Xrotation
			JOINT Spine1
			{
				OFFSET -0.009200 8.660301 -1.275000
				CHANNELS 3 Zrotation Yrotation Xrotation
				JOINT Spine2
				{
					OFFSET 0.006300 9.852501 -1.857000
					CHANNELS 3 Zrotation Yrotation Xrotation
					JOINT Spine2_Neck
					{
						OFFSET 0.000000 0.000000 0.000000
						CHANNELS 3 Zrotation Yrotation Xrotation
						JOINT Neck
						{
							OFFSET 0.016300 11.420799 -0.263300
							CHANNELS 3 Zrotation Yrotation Xrotation
							End Site #name: Head
							{
								OFFSET -0.019200 9.262405 2.362500
							}
						}
					}
					JOINT Spine2_LeftShoulder
					{
						OFFSET 0.000000 0.000000 0.000000
						CHANNELS 3 Zrotation Yrotation Xrotation
						JOINT LeftShoulder
						{
							OFFSET 5.616900 6.732201 -0.345700
							CHANNELS 3 Zrotation Yrotation Xrotation
							JOINT LeftArm
							{
								OFFSET 10.664888 -0.183372 -2.440700
								CHANNELS 3 Zrotation Yrotation Xrotation
								JOINT LeftForeArm
								{
									OFFSET 27.459126 0.000000 0.000000
									CHANNELS 3 Zrotation Yrotation Xrotation
									End Site #name: LeftHand
									{
										OFFSET 21.306858 0.000000 0.000000
									}
								}
							}
						}
					}
					JOINT Spine2_RightShoulder
					{
						OFFSET 0.000000 0.000000 0.000000
						CHANNELS 3 Zrotation Yrotation Xrotation
						JOINT RightShoulder
						{
							OFFSET -5.580300 6.737503 -0.344400
							CHANNELS 3 Zrotation Yrotation Xrotation
							JOINT RightArm
							{
								OFFSET -10.679335 -0.188484 -2.383900
								CHANNELS 3 Zrotation Yrotation Xrotation
								JOINT RightForeArm
								{
									OFFSET -27.503529 0.000000 0.000000
									CHANNELS 3 Zrotation Yrotation Xrotation
									End Site #name: RightHand
									{
										OFFSET -21.306808 0.000000 0.000000
									}
								}
							}
						}
					}
				}
			}
		}
	}
	JOINT Hips_LeftUpLeg
	{
		OFFSET 0.000000 0.000000 0.000000
		CHANNELS 3 Zrotation Yrotation Xrotation
		JOINT LeftUpLeg
		{
			OFFSET 6.857700 -6.739601 0.312100
			CHANNELS 3 Zrotation Yrotation Xrotation
			JOINT LeftLeg
			{
				OFFSET -0.367590 -34.731552 -4.572400
				CHANNELS 3 Zrotation Yrotation Xrotation
				End Site #name: LeftFoot
				{
					OFFSET 0.367590 -34.656704 -6.067400
				}
			}
		}
	}
	JOINT Hips_RightUpLeg
	{
		OFFSET 0.000000 0.000000 0.000000
		CHANNELS 3 Zrotation Yrotation Xrotation
		JOINT RightUpLeg
		{
			OFFSET -6.876100 -6.733299 0.301000
			CHANNELS 3 Zrotation Yrotation Xrotation
			JOINT RightLeg
			{
				OFFSET 0.347353 -34.795158 -4.515900
				CHANNELS 3 Zrotation Yrotation Xrotation
				End Site #name: RightFoot
				{
					OFFSET -0.347353 -34.589367 -6.070300
				}
			}
		}
	}
}
MOTION
Frames: 6
Frame Time: 0.041667
0.019715 0.023151 -0.037497 -4.472073 -0.405312 -5.105519 0.000000 -0.000000 0.000000 1.435609 0.908662 19.253006 0.928834 0.865310 2.098900 0.000000 0.000000 0.000000 0.978596 0.544068 0.896714 0.804408 -0.980665 5.990922 0.847324 0.098558 2.174350 -10.462080 -9.322731 2.143910 -60.659463 0.484359 12.909153 0.497499 -25.776973 -0.077673 1.449199 0.421842 2.601338 9.113674 -6.853898 0.022094 68.395318 6.721151 35.985592 -0.042916 28.101827 0.795470 0.000000 0.000000 0.000000 8.063943 7.927310 -74.950694 5.221209 -5.432972 69.832098 -0.000000 0.000000 0.000000 -4.799499 -7.379329 -63.315450 -1.596535 -0.175077 69.182465 
0.034245 0.055277 -0.116027 -4.606169 0.285922 -3.311571 0.000000 -0.000000 -0.000000 2.072627 -0.003615 16.785974 0.709646 0.343575 1.924775 0.000000 0.000000 0.000000 0.798638 0.460551 1.484241 0.456206 -1.177690 5.517829 1.015581 0.513799 2.264280 -9.633783 -5.984065 1.012609 -65.032050 -2.272818 7.563304 0.034236 -28.109348 0.846033 0.613962 0.348399 1.995744 8.857608 -6.885275 0.098905 69.451587 10.753578 26.515009 0.179914 32.831896 0.420075 0.000000 0.000000 -0.000000 7.907357 8.818724 -76.651644 5.513691 -5.005828 68.794712 -0.000000 -0.000000 0.000000 -3.944006 -7.914640 -67.328881 -1.249005 0.026866 68.772018 
0.028088 0.048885 -0.178107 -4.337794 1.276552 -2.685912 0.000000 0.000000 -0.000000 3.072953 -0.117510 17.756414 0.617283 0.453249 1.904599 0.000000 0.000000 0.000000 0.809309 0.370155 1.444658 1.033488 -0.658786 5.440711 0.872429 0.507029 2.026458 -10.187201 -5.133310 0.685979 -64.106820 -0.379559 8.620609 0.129386 -27.796052 0.732014 0.625374 0.425524 2.086287 8.303925 -6.804933 0.227127 68.915887 13.431350 25.432050 0.196701 37.103740 0.128234 -0.000000 0.000000 0.000000 7.975200 8.154953 -76.968990 5.070628 -5.388858 67.630018 -0.000000 -0.000000 -0.000000 -4.641369 -7.565936 -68.548358 -1.311615 -0.079759 70.075823 
0.020681 0.037097 -0.240829 -4.384224 1.623791 -2.663358 0.000000 0.000000 -0.000000 3.247790 0.402489 18.205771 0.581481 0.447915 2.151780 0.000000 0.000000 0.000000 0.904829 0.429800 1.469701 1.022160 -0.472540 6.103238 0.856712 0.417894 2.101694 -9.681624 -5.166635 0.688358 -65.180847 -2.405811 6.115801 0.108272 -27.783054 0.741966 0.742407 0.468544 2.394067 8.311978 -7.274310 0.177963 70.710711 15.700684 25.420241 0.122094 41.009152 -0.030634 -0.000000 0.000000 0.000000 7.840333 7.946946 -76.137222 5.009577 -5.478979 66.382596 -0.000000 -0.000000 -0.000000 -4.666265 -7.858757 -69.506068 -0.961668 0.014126 71.272274 
0.019296 0.033678 -0.298825 -4.436819 1.788861 -2.720717 -0.000000 0.000000 -0.000000 3.288255 0.611682 18.712240 0.536849 0.431827 2.304048 0.000000 0.000000 0.000000 0.900740 0.444659 1.557629 1.081756 -0.386045 6.732769 0.839025 0.382223 2.133592 -9.602932 -5.230859 0.726182 -65.559671 -3.692563 4.355468 0.120797 -28.720216 0.706865 0.757127 0.477785 2.627593 8.817893 -7.547368 0.065299 71.968624 17.305274 26.231278 0.065681 44.005912 -0.107043 -0.000000 0.000000 -0.000000 7.754483 8.027011 -75.677462 4.948567 -5.352698 65.842015 -0.000000 -0.000000 -0.000000 -4.789839 -7.900333 -70.040128 -0.821448 -0.024072 72.013936 
0.021188 0.037126 -0.352182 -4.481704 1.712396 -2.808306 -0.000000 0.000000 -0.000000 3.261488 0.592397 18.984641 0.541532 0.395315 2.412321 0.000000 0.000000 0.000000 0.874501 0.422466 1.674296 1.139478 -0.362219 7.056588 0.826793 0.347914 2.226712 -9.580426 -5.140428 0.699411 -65.451812 -4.160849 4.168169 0.120824 -29.762478 0.675572 0.732877 0.462821 2.747920 9.189827 -7.499239 0.043134 72.287071 18.576252 26.263099 0.033349 45.956101 -0.145583 -0.000000 0.000000 -0.000000 7.800172 8.257916 -75.536924 4.887302 -5.321809 65.958881 -0.000000 -0.000000 -0.000000 -4.914604 -7.812521 -70.112905 -0.784780 -0.064629 72.301817 
